name analog
datacolumns 19
datarows 51
range 0.4035 0.4285
endheader
time	ground_force_vx	ground_force_vy	ground_force_vz	ground_force_px	ground_force_py	ground_force_pz	l_ground_force_vx	l_ground_force_vy	l_ground_force_vz	l_ground_force_px	l_ground_force_py	l_ground_force_pz	ground_torque_x	ground_torque_y	ground_torque_z	l_ground_torque_x	l_ground_torque_y	l_ground_torque_z
0.4035	-0.0	-0.0	-0.0	2.8359274864196777	5.026471614837647	-388.4234924316406	-1.4550731182098389	-5.333768844604492	-379.3191833496094	-0.0	-0.0	-0.0	-0.0	-0.0	-0.0	81923.6015625	-56970.1953125	-4404.966796875
0.404	-0.0	-0.0	-0.0	3.4980950355529785	5.11816930770874	-391.8905334472656	-1.561131477355957	-5.281991958618164	-377.7136535644531	-0.0	-0.0	-0.0	-0.0	-0.0	-0.0	81616.828125	-56789.28515625	-4410.46875
0.4045	-0.0	-0.0	-0.0	3.995426893234253	5.258693695068359	-389.5574951171875	-1.4549552202224731	-5.475944519042969	-376.1744384765625	-0.0	-0.0	-0.0	-0.0	-0.0	-0.0	81309.3203125	-56377.12890625	-4333.5400390625
0.405	-0.0	-0.0	-0.0	3.855213642120361	5.045439720153809	-392.95062255859375	-1.6676400899887085	-5.228562355041504	-373.94140625	-0.0	-0.0	-0.0	-0.0	-0.0	-0.0	80845.0703125	-56319.6640625	-4463.99951171875
0.4055	-0.0	-0.0	-0.0	3.615669488906861	5.1153883934021	-393.7818298339844	-1.153240203857422	-5.263952255249023	-373.17327880859375	-0.0	-0.0	-0.0	-0.0	-0.0	-0.0	80846.53125	-56337.87109375	-4410.232421875
0.406	-0.0	-0.0	-0.0	3.549022436141968	5.254807472229004	-396.498291015625	-1.7921111583709717	-4.716301441192627	-372.4743347167969	-0.0	-0.0	-0.0	-0.0	-0.0	-0.0	80697.1484375	-56268.515625	-4511.40625
0.40650000000000003	-0.0	-0.0	-0.0	3.0331573486328125	5.545580863952637	-394.6565246582031	-1.3833519220352173	-4.522337436676025	-373.101318359375	-0.0	-0.0	-0.0	-0.0	-0.0	-0.0	80752.5625	-56595.1171875	-4510.84228515625
0.40700000000000003	-0.0	-0.0	-0.0	3.211578369140625	5.452084064483643	-396.07025146484375	-1.7742156982421875	-4.327762603759766	-375.0563354492188	-0.0	-0.0	-0.0	-0.0	-0.0	-0.0	81231.5234375	-56907.171875	-4570.29345703125
0.40750000000000003	-0.0	-0.0	-0.0	3.5731916427612305	5.600249290466309	-397.3463439941406	-1.5433157682418823	-4.25635290145874	-378.27484130859375	-0.0	-0.0	-0.0	-0.0	-0.0	-0.0	81691.90625	-57382.140625	-4600.10498046875
0.40800000000000003	-0.0	-0.0	-0.0	3.662592649459839	5.7191972732543945	-396.778076171875	-1.5982433557510376	-4.346004009246826	-379.0401306152344	-0.0	-0.0	-0.0	-0.0	-0.0	-0.0	82265.3125	-57675.8671875	-4558.24951171875
0.40850000000000003	-0.0	-0.0	-0.0	4.2621169090271	5.476894378662109	-396.8159790039063	-1.6503905057907104	-4.416084289550781	-380.6407470703125	-0.0	-0.0	-0.0	-0.0	-0.0	-0.0	82731.015625	-58015.31640625	-4606.40185546875
0.40900000000000003	-0.0	-0.0	-0.0	4.515182495117188	5.471477031707764	-396.8374633789063	-1.5266802310943604	-4.276471614837647	-381.5495300292969	-0.0	-0.0	-0.0	-0.0	-0.0	-0.0	83055.359375	-58136.7421875	-4594.59423828125
0.40950000000000003	-0.0	-0.0	-0.0	4.906578063964844	4.9080095291137695	-398.1473388671875	-1.4894109964370728	-3.9047446250915527	-382.670166015625	-0.0	-0.0	-0.0	-0.0	-0.0	-0.0	83275.3125	-58400.796875	-4653.8388671875
0.41000000000000003	-0.0	-0.0	-0.0	4.756346702575684	5.005384922027588	-396.54052734375	-1.2419509887695312	-3.744296789169312	-382.0352783203125	-0.0	-0.0	-0.0	-0.0	-0.0	-0.0	83210.2265625	-58120.953125	-4522.451171875
0.41050000000000003	-0.0	-0.0	-0.0	3.8638970851898193	4.737821578979492	-398.3059997558594	-1.311715006828308	-3.58646011352539	-381.8345947265625	-0.0	-0.0	-0.0	-0.0	-0.0	-0.0	82925.3046875	-58112.47265625	-4624.10546875
0.41100000000000003	-0.0	-0.0	-0.0	4.220353603363037	4.854171752929688	-399.5008850097656	-1.1913878917694092	-3.744176626205444	-379.9520568847656	-0.0	-0.0	-0.0	-0.0	-0.0	-0.0	82935.1640625	-57873.56640625	-4623.0107421875
0.41150000000000003	-0.0	-0.0	-0.0	3.6847636699676514	5.052639007568359	-400.0991516113281	-1.4001896381378174	-3.4254469871521	-379.1031799316406	-0.0	-0.0	-0.0	-0.0	-0.0	-0.0	82265.875	-57607.015625	-4504.384765625
0.41200000000000003	-0.0	-0.0	-0.0	2.984302520751953	5.080432891845703	-401.5898742675781	-0.7983970642089844	-3.306251049041748	-378.2070007324219	-0.0	-0.0	-0.0	-0.0	-0.0	-0.0	81994.5	-57493.046875	-4492.28955078125
0.41250000000000003	-0.0	-0.0	-0.0	3.3085083961486816	5.436954498291016	-400.9944152832031	-0.3742620348930359	-3.272075891494751	-377.52581787109375	-0.0	-0.0	-0.0	-0.0	-0.0	-0.0	82149.7578125	-57689.828125	-4476.6767578125
0.41300000000000003	-0.0	-0.0	-0.0	3.308796167373657	5.177563190460205	-401.1607971191406	-0.0195333510637283	-2.8068463802337646	-377.7228088378906	-0.0	-0.0	-0.0	-0.0	-0.0	-0.0	81980.765625	-57424.6640625	-4325.14453125
0.41350000000000003	-0.0	-0.0	-0.0	3.313713312149048	4.8552446365356445	-400.1204223632813	0.6209754943847656	-3.3859786987304688	-378.2672119140625	-0.0	-0.0	-0.0	-0.0	-0.0	-0.0	82225.796875	-58019.1484375	-4230.82275390625
0.41400000000000003	-0.0	-0.0	-0.0	3.389999389648437	4.766436100006104	-402.4064331054688	0.8673393726348877	-2.880295753479004	-378.0533752441406	-0.0	-0.0	-0.0	-0.0	-0.0	-0.0	82417.6796875	-58063.80859375	-4146.47021484375
0.41450000000000004	-0.0	-0.0	-0.0	3.768237829208374	5.059055805206299	-401.9187622070313	1.3253105878829956	-2.948878765106201	-379.58502197265625	-0.0	-0.0	-0.0	-0.0	-0.0	-0.0	82664.7890625	-58513.04296875	-4057.13134765625
0.41500000000000004	-0.0	-0.0	-0.0	4.149844169616699	4.521036624908447	-402.1990661621094	1.7055147886276243	-2.7379722595214844	-381.4087829589844	-0.0	-0.0	-0.0	-0.0	-0.0	-0.0	83197.4921875	-58519.68359375	-4209.88037109375
0.41550000000000004	-0.0	-0.0	-0.0	4.069894790649414	4.010868072509766	-402.7964172363281	1.5967941284179688	-2.173896074295044	-381.0594177246094	-0.0	-0.0	-0.0	-0.0	-0.0	-0.0	83338.703125	-58739.484375	-4111.25
0.41600000000000004	-0.0	-0.0	-0.0	4.21464204788208	4.25653076171875	-403.0257568359375	1.6995116472244265	-2.1817002296447754	-381.9963684082031	-0.0	-0.0	-0.0	-0.0	-0.0	-0.0	83360.8203125	-59005.875	-4263.681640625
0.4165	-0.0	-0.0	-0.0	3.9706549644470215	4.634780883789063	-403.9511413574219	1.3031286001205444	-1.9227739572525024	-383.4768371582031	-0.0	-0.0	-0.0	-0.0	-0.0	-0.0	83687.765625	-58830.55078125	-4170.7685546875
0.417	-0.0	-0.0	-0.0	4.34805965423584	4.791076183319092	-403.7716979980469	1.39890456199646	-1.9294835329055784	-381.8913269042969	-0.0	-0.0	-0.0	-0.0	-0.0	-0.0	83351.6953125	-58557.21875	-4277.96142578125
0.4175	-0.0	-0.0	-0.0	3.76890230178833	5.036350727081299	-405.3176574707031	1.1056160926818848	-2.20804214477539	-382.4827575683594	-0.0	-0.0	-0.0	-0.0	-0.0	-0.0	83392.96875	-58448.08984375	-4342.12158203125
0.418	-0.0	-0.0	-0.0	4.125905513763428	4.690446853637695	-404.9648132324219	0.6342756748199463	-2.283122062683105	-382.7516784667969	-0.0	-0.0	-0.0	-0.0	-0.0	-0.0	83117.9609375	-58214.4453125	-4212.42236328125
0.4185	-0.0	-0.0	-0.0	3.5572800636291504	4.969024181365967	-406.7750244140625	0.3208774924278259	-2.166665554046631	-380.57525634765625	-0.0	-0.0	-0.0	-0.0	-0.0	-0.0	83059.4140625	-58129.62109375	-4338.22021484375
0.419	-0.0	-0.0	-0.0	3.289846897125244	5.236271858215332	-407.2142639160156	-0.232238084077835	-2.784632921218872	-381.406982421875	-0.0	-0.0	-0.0	-0.0	-0.0	-0.0	83230.046875	-57899.95703125	-4324.82568359375
0.4195	-0.0	-0.0	-0.0	2.821418285369873	5.427307605743408	-410.0844421386719	-0.5871472358703613	-2.9819753170013428	-381.3238525390625	-0.0	-0.0	-0.0	-0.0	-0.0	-0.0	83064.390625	-57767.1796875	-4329.35595703125
0.42	-0.0	-0.0	-0.0	3.17831826210022	5.124223709106445	-410.6227416992188	-0.96321702003479	-3.343677759170532	-383.3526306152344	-0.0	-0.0	-0.0	-0.0	-0.0	-0.0	82994.734375	-57582.421875	-4400.23974609375
0.4205	-0.0	-0.0	-0.0	2.7323460578918457	5.13641357421875	-412.6455383300781	-1.0005415678024292	-3.322681188583374	-381.1056518554688	-0.0	-0.0	-0.0	-0.0	-0.0	-0.0	83026.359375	-57388.5	-4395.966796875
0.421	-0.0	-0.0	-0.0	2.966874122619629	4.958190441131592	-411.8078002929688	-1.41937255859375	-3.511556386947632	-381.32177734375	-0.0	-0.0	-0.0	-0.0	-0.0	-0.0	82754.59375	-57485.88671875	-4329.7890625
0.4215	-0.0	-0.0	-0.0	3.489308834075928	5.080432891845703	-411.6767578125	-0.8871078491210938	-3.3896913528442383	-382.1519470214844	-0.0	-0.0	-0.0	-0.0	-0.0	-0.0	82980.65625	-57462.27734375	-4369.2890625
0.422	-0.0	-0.0	-0.0	3.733533382415772	4.64462947845459	-411.50732421875	-0.8416801691055298	-3.346518278121948	-382.7169799804688	-0.0	-0.0	-0.0	-0.0	-0.0	-0.0	83027.0	-57634.19140625	-4302.734375
0.4225	-0.0	-0.0	-0.0	4.437284469604492	4.559136390686035	-410.748291015625	-0.5874786376953125	-3.1480653285980225	-383.1511840820313	-0.0	-0.0	-0.0	-0.0	-0.0	-0.0	83273.171875	-57707.91015625	-4380.29443359375
0.423	-0.0	-0.0	-0.0	4.638946533203125	4.156246185302734	-411.1940612792969	-0.3664081990718841	-3.124537706375122	-383.45452880859375	-0.0	-0.0	-0.0	-0.0	-0.0	-0.0	83107.5703125	-57782.30859375	-4254.18896484375
0.4235	-0.0	-0.0	-0.0	4.99578857421875	4.273401737213135	-411.7147216796875	-0.565623939037323	-3.2897982597351074	-385.81256103515625	-0.0	-0.0	-0.0	-0.0	-0.0	-0.0	83802.6796875	-57850.94140625	-4261.705078125
0.424	-0.0	-0.0	-0.0	4.930211544036865	4.1799821853637695	-410.3588562011719	-1.0642471313476562	-3.311922550201416	-384.9402465820313	-0.0	-0.0	-0.0	-0.0	-0.0	-0.0	83877.796875	-58227.80859375	-4414.05322265625
0.4245	-0.0	-0.0	-0.0	4.8262810707092285	4.842777252197266	-411.619384765625	-0.9758186340332032	-3.897060632705689	-387.9505615234375	-0.0	-0.0	-0.0	-0.0	-0.0	-0.0	84316.6171875	-58389.54296875	-4425.408203125
0.425	-0.0	-0.0	-0.0	4.532135963439941	5.080432891845703	-412.9021911621094	-1.0862133502960205	-4.095836162567139	-390.2183227539063	-0.0	-0.0	-0.0	-0.0	-0.0	-0.0	84254.5859375	-58351.2109375	-4551.50732421875
0.4255	-0.0	-0.0	-0.0	4.064478874206543	5.282618045806885	-412.4194030761719	-2.017930507659912	-4.537407398223877	-391.3989868164063	-0.0	-0.0	-0.0	-0.0	-0.0	-0.0	84874.515625	-58715.609375	-4581.93359375
0.426	-0.0	-0.0	-0.0	4.233891010284424	4.797394275665283	-412.0655517578125	-2.550035238265991	-4.758927822113037	-391.9671325683594	-0.0	-0.0	-0.0	-0.0	-0.0	-0.0	84838.015625	-58679.05078125	-4556.1845703125
0.4265	-0.0	-0.0	-0.0	3.9737067222595215	4.432319641113281	-413.3819274902344	-2.904763698577881	-5.223300457000732	-393.0148010253906	-0.0	-0.0	-0.0	-0.0	-0.0	-0.0	85111.75	-58582.0625	-4779.30322265625
0.427	-0.0	-0.0	-0.0	4.379392147064209	4.691511154174805	-412.4497375488281	-3.2037124633789062	-5.132737636566162	-394.5413208007813	-0.0	-0.0	-0.0	-0.0	-0.0	-0.0	85098.4296875	-58540.02734375	-4871.87060546875
0.4275	-0.0	-0.0	-0.0	4.338939189910889	4.107908725738525	-412.3204956054688	-3.735817193984986	-5.508691787719727	-394.0745239257813	-0.0	-0.0	-0.0	-0.0	-0.0	-0.0	85284.890625	-58731.01953125	-4957.951171875
0.428	-0.0	-0.0	-0.0	5.0281267166137695	3.994152307510376	-412.7393493652344	-3.7455549240112314	-5.982972621917725	-394.0111389160156	-0.0	-0.0	-0.0	-0.0	-0.0	-0.0	85005.421875	-58410.69140625	-4842.71630859375
0.4285	-0.0	-0.0	-0.0	5.206467151641846	3.800378799438477	-411.5224609375	-3.8744418621063232	-5.904060363769531	-394.7236633300781	-0.0	-0.0	-0.0	-0.0	-0.0	-0.0	85084.765625	-58745.28515625	-4820.7890625
